<?xml version="1.0" standalone="no"?>
<!DOCTYPE svg PUBLIC "-//W3C//DTD SVG 20010904//EN"
 "http://www.w3.org/TR/2001/REC-SVG-20010904/DTD/svg10.dtd">
<svg version="1.0" xmlns="http://www.w3.org/2000/svg"
 width="579.000000pt" height="579.000000pt" viewBox="0 0 579.000000 579.000000"
 preserveAspectRatio="xMidYMid meet">
<metadata>
Created by potrace 1.14, written by Peter Selinger 2001-2017
</metadata>
<g transform="translate(0.000000,579.000000) scale(0.100000,-0.100000)"
fill="#000000" stroke="none">
<path d="M2630 5597 c-3 -3 -41 -7 -85 -11 -44 -4 -91 -9 -105 -11 -118 -17
-178 -29 -261 -50 -30 -8 -64 -16 -75 -18 -10 -2 -26 -7 -34 -10 -8 -3 -44
-15 -80 -25 -239 -72 -568 -238 -765 -386 -61 -46 -177 -139 -195 -156 -9 -8
-46 -43 -83 -77 -36 -34 -89 -88 -118 -120 -29 -32 -66 -74 -83 -93 -18 -19
-45 -53 -61 -75 -17 -22 -33 -42 -36 -45 -14 -12 -133 -192 -174 -265 -57 -99
-172 -336 -180 -370 -1 -5 -7 -23 -14 -39 -33 -80 -99 -308 -115 -392 -17 -99
-26 -152 -32 -202 -3 -31 -8 -66 -11 -77 -9 -36 -11 -459 -3 -520 5 -33 11
-82 14 -110 3 -27 8 -60 10 -71 2 -12 7 -37 10 -55 3 -19 8 -45 11 -59 3 -14
8 -37 10 -53 2 -15 6 -31 9 -36 3 -4 8 -23 11 -42 11 -61 76 -254 127 -377 63
-151 233 -460 259 -470 5 -2 9 -8 9 -13 0 -11 97 -143 145 -197 117 -134 198
-217 291 -297 31 -27 62 -55 68 -60 6 -6 38 -31 71 -55 33 -25 62 -47 65 -50
6 -7 160 -108 210 -138 121 -72 478 -232 520 -232 6 0 18 -4 28 -9 18 -10 137
-45 187 -56 17 -3 48 -10 70 -15 22 -5 60 -12 85 -16 24 -3 47 -7 50 -9 4 -2
31 -7 61 -10 30 -3 88 -10 129 -14 75 -9 483 -7 530 2 23 5 59 10 150 23 83
11 274 59 390 97 69 22 127 42 130 42 65 18 411 189 418 207 2 4 8 8 13 8 6 0
37 18 70 40 33 22 65 40 70 40 5 0 9 4 9 8 0 5 23 24 52 42 29 19 59 41 68 50
9 8 33 29 54 45 68 53 186 164 281 266 72 78 175 206 175 218 0 6 4 11 9 11 5
0 24 25 42 55 18 30 37 55 41 55 4 0 8 4 8 8 0 5 24 49 54 98 107 179 220 440
271 629 25 89 54 215 60 255 3 19 7 44 10 55 2 11 6 40 10 65 3 25 8 63 11 85
10 67 13 445 4 525 -18 159 -30 236 -45 305 -33 153 -90 342 -135 450 -7 17
-14 35 -15 40 -8 32 -162 334 -176 345 -3 3 -9 15 -13 28 -4 12 -12 22 -17 22
-5 0 -9 6 -9 13 0 8 -9 22 -20 32 -11 10 -20 23 -20 30 0 7 -9 20 -20 30 -11
10 -20 22 -20 27 0 8 -41 65 -75 104 -5 6 -26 31 -45 55 -113 138 -367 384
-439 423 -9 5 -26 18 -38 29 -12 11 -31 25 -41 31 -10 6 -50 32 -88 57 -38 25
-85 54 -104 65 -19 10 -37 22 -40 25 -10 12 -277 137 -360 169 -85 32 -197 69
-232 75 -10 2 -22 6 -26 9 -5 3 -19 7 -33 10 -13 2 -53 11 -89 20 -71 16 -121
26 -160 31 -14 2 -41 6 -62 10 -20 3 -56 8 -80 11 -57 7 -463 16 -468 11z"/>
</g>
</svg>
